<svg data-v-423bf9ae="" xmlns="http://www.w3.org/2000/svg" viewBox="0 0 336.57970570072393 60" class="font"><!----><!----><!----><g data-v-423bf9ae="" id="c369bb81-6084-4531-87f4-138da69dcac6" fill="white" transform="matrix(5.797101020812988,0,0,5.797101020812988,0.000009342276825918816,-17.1014461517334)"><path d="M4.13 2.95L4.13 11.76L0.78 3.46L0.49 3.46L0.49 13.27L0 13.27L0 2.95L1.11 2.95L3.63 9.20L3.63 2.95ZM4.17 12.77L4.45 12.77L4.45 2.95L4.96 2.95L4.96 13.27L3.84 13.27L1.32 7.03L1.32 13.27L0.83 13.27L0.83 4.47ZM6.44 3.49L6.44 12.81L10.22 12.81L10.22 13.30L5.95 13.30L5.95 2.98L10.22 2.98L10.22 3.49ZM6.78 3.81L10.22 3.81L10.22 4.31L7.27 4.31L7.27 7.48L10.22 7.48L10.22 7.98L6.78 7.98ZM6.78 8.30L10.22 8.30L10.22 8.81L7.27 8.81L7.27 11.98L10.22 11.98L10.22 12.47L6.78 12.47ZM17.79 12.75L18.09 12.75L20.23 2.98L20.75 2.98L18.47 13.30L17.40 13.30L15.96 6.72L14.50 13.30L13.44 13.30L11.16 2.98L11.68 2.98L13.83 12.75L14.11 12.75L15.96 4.41ZM17.93 11.87L16.10 3.53L15.81 3.53L13.97 11.87L12.01 2.98L12.52 2.98L13.97 9.58L15.43 2.98L16.49 2.98L17.93 9.58L19.39 2.98L19.89 2.98ZM26.17 6.59L25.66 6.59L25.66 5.94C25.66 4.30 25.00 3.49 23.70 3.49C22.43 3.49 21.73 4.52 21.73 5.94C21.73 6.73 22.04 7.28 22.43 7.64C22.81 8.01 23.25 8.20 23.52 8.32L23.76 8.43C24.00 8.53 24.39 8.67 24.72 8.97C25.06 9.28 25.34 9.76 25.34 10.44C25.34 11.73 24.72 12.47 23.70 12.47C22.60 12.47 22.06 11.83 22.06 10.37L22.06 9.72L22.55 9.72L22.55 10.37C22.55 10.98 22.67 11.41 22.88 11.68C22.92 11.75 23.00 11.80 23.13 11.87C23.25 11.94 23.44 11.98 23.70 11.98C24.21 11.98 24.49 11.73 24.65 11.42C24.81 11.12 24.84 10.72 24.84 10.44C24.84 9.95 24.67 9.63 24.43 9.39C24.19 9.17 23.87 9.02 23.58 8.89L23.32 8.78C23.03 8.65 22.53 8.44 22.08 8.01C21.52 7.46 21.24 6.78 21.24 5.94C21.24 5.05 21.48 4.31 21.92 3.79C22.36 3.29 22.97 2.98 23.70 2.98C24.71 2.98 25.27 3.42 25.56 3.79C25.97 4.31 26.17 5.03 26.17 5.94ZM21.24 9.72L21.73 9.72L21.73 10.37C21.73 11.98 22.40 12.81 23.70 12.81C24.32 12.81 24.84 12.57 25.17 12.11C25.49 11.70 25.66 11.12 25.66 10.44C25.66 9.65 25.34 9.10 24.96 8.75C24.57 8.40 24.12 8.22 23.88 8.12L23.66 8.02C23.39 7.91 23.00 7.74 22.67 7.41C22.33 7.08 22.06 6.62 22.06 5.94C22.06 5.45 22.16 4.91 22.43 4.51C22.69 4.10 23.10 3.81 23.70 3.81C24.78 3.81 25.34 4.48 25.34 5.94L25.34 6.59L24.84 6.59L24.84 5.94C24.84 5.14 24.65 4.70 24.42 4.51C24.18 4.31 23.88 4.31 23.70 4.31C23.16 4.31 22.89 4.61 22.74 4.97C22.57 5.33 22.55 5.75 22.55 5.94C22.55 6.43 22.72 6.75 22.96 7.00C23.20 7.25 23.52 7.43 23.86 7.56L24.08 7.66C24.35 7.77 24.85 7.95 25.30 8.39C25.87 8.92 26.17 9.60 26.17 10.44C26.17 12.03 25.28 13.30 23.70 13.30C22.06 13.30 21.24 12.22 21.24 10.37ZM31.60 3.49L31.60 13.30L31.11 13.30L31.11 2.98L35.38 2.98L35.38 3.49ZM31.93 3.81L35.38 3.81L35.38 4.31L32.42 4.31L32.42 7.48L35.38 7.48L35.38 7.98L31.93 7.98ZM32.42 13.30L31.93 13.30L31.93 8.30L35.38 8.30L35.38 8.81L32.42 8.81ZM36.32 2.97L36.81 2.97L36.81 12.80L40.81 12.80L40.81 13.29L36.32 13.29ZM40.81 12.46L37.14 12.46L37.14 2.97L37.63 2.97L37.63 11.97L40.81 11.97ZM43.83 2.98L44.88 2.98L47.28 13.30L46.76 13.30L44.51 3.57L44.20 3.57L41.94 13.30L41.44 13.30ZM44.35 4.38L45.56 9.60L43.13 9.60ZM44.35 6.58L43.76 9.10L44.94 9.10ZM42.80 13.30L42.28 13.30L43.06 9.93L45.64 9.93L46.42 13.30L45.92 13.30L45.25 10.43L43.46 10.43ZM52.79 6.59L52.29 6.59L52.29 5.94C52.29 4.30 51.63 3.49 50.33 3.49C49.06 3.49 48.36 4.52 48.36 5.94C48.36 6.73 48.66 7.28 49.06 7.64C49.43 8.01 49.88 8.20 50.15 8.32L50.39 8.43C50.62 8.53 51.02 8.67 51.35 8.97C51.69 9.28 51.97 9.76 51.97 10.44C51.97 11.73 51.35 12.47 50.33 12.47C49.22 12.47 48.69 11.83 48.69 10.37L48.69 9.72L49.18 9.72L49.18 10.37C49.18 10.98 49.29 11.41 49.50 11.68C49.55 11.75 49.63 11.80 49.76 11.87C49.88 11.94 50.06 11.98 50.33 11.98C50.83 11.98 51.11 11.73 51.28 11.42C51.44 11.12 51.46 10.72 51.46 10.44C51.46 9.95 51.30 9.63 51.06 9.39C50.82 9.17 50.50 9.02 50.20 8.89L49.95 8.78C49.66 8.65 49.15 8.44 48.71 8.01C48.15 7.46 47.87 6.78 47.87 5.94C47.87 5.05 48.10 4.31 48.55 3.79C48.99 3.29 49.60 2.98 50.33 2.98C51.34 2.98 51.90 3.42 52.19 3.79C52.60 4.31 52.79 5.03 52.79 5.94ZM47.87 9.72L48.36 9.72L48.36 10.37C48.36 11.98 49.03 12.81 50.33 12.81C50.95 12.81 51.46 12.57 51.80 12.11C52.12 11.70 52.29 11.12 52.29 10.44C52.29 9.65 51.97 9.10 51.59 8.75C51.20 8.40 50.75 8.22 50.51 8.12L50.29 8.02C50.02 7.91 49.63 7.74 49.29 7.41C48.96 7.08 48.69 6.62 48.69 5.94C48.69 5.45 48.79 4.91 49.06 4.51C49.32 4.10 49.73 3.81 50.33 3.81C51.41 3.81 51.97 4.48 51.97 5.94L51.97 6.59L51.46 6.59L51.46 5.94C51.46 5.14 51.28 4.70 51.04 4.51C50.81 4.31 50.51 4.31 50.33 4.31C49.78 4.31 49.52 4.61 49.36 4.97C49.20 5.33 49.18 5.75 49.18 5.94C49.18 6.43 49.35 6.75 49.59 7.00C49.83 7.25 50.15 7.43 50.48 7.56L50.71 7.66C50.97 7.77 51.48 7.95 51.93 8.39C52.50 8.92 52.79 9.60 52.79 10.44C52.79 12.03 51.91 13.30 50.33 13.30C48.69 13.30 47.87 12.22 47.87 10.37ZM53.91 2.97L53.91 13.29L53.42 13.29L53.42 2.97ZM57.23 7.97L54.25 7.97L54.25 2.97L54.74 2.97L54.74 7.48L56.73 7.48L56.73 2.97L57.23 2.97ZM57.55 13.29L57.55 2.97L58.06 2.97L58.06 13.29ZM54.25 8.30L57.23 8.30L57.23 13.29L56.73 13.29L56.73 8.79L54.74 8.79L54.74 13.29L54.25 13.29Z"></path></g><!----><!----></svg>